<svg width="58" height="67" viewBox="0 0 58 67" fill="none" xmlns="http://www.w3.org/2000/svg">
<path d="M42.4332 55.5506L44.715 54.9619C46.2321 54.5705 47.8572 53.7239 49.4164 52.5071C51.2423 51.084 52.7385 49.327 53.632 47.561C54.5405 45.7647 54.7114 44.1564 54.1177 43.0368C53.3202 41.5317 51.2453 41.0705 48.6458 41.9656L48.1451 42.1386L48.0281 42.6605C47.1346 46.6446 45.6714 50.3011 43.6805 53.5297L42.4332 55.5506ZM49.7432 43.6224C51.0924 43.2522 52.1688 43.413 52.4477 43.941C52.6575 44.3355 52.6516 45.2943 51.9439 46.6902C51.1764 48.2074 49.8691 49.7367 48.259 50.9899C47.6893 51.4329 47.1556 51.7879 46.6609 52.0762C47.9951 49.4666 49.0266 46.6355 49.7432 43.6224Z" fill="#C29C5E"/>
<path d="M7.99141 57.9871C12.7258 63.7646 18.9113 66.9477 25.4147 66.9477C31.6302 66.9477 37.5879 64.0195 42.2383 58.6911C42.5891 58.7093 42.931 58.7033 43.2908 58.676C45.7404 58.4969 48.4569 57.3287 50.9455 55.3927C56.3935 51.1476 58.9091 44.9393 56.7952 40.9521C55.6799 38.8432 53.4461 37.7963 50.6816 38.03C50.7386 37.4686 50.7836 36.9073 50.8166 36.352C50.8795 35.3506 50.5467 34.3826 49.9051 33.6908C49.3564 33.0991 48.6398 32.7744 47.8842 32.7744H2.94222C2.18964 32.7744 1.47004 33.0991 0.924345 33.6878C0.282702 34.3796 -0.0531126 35.3506 0.00685398 36.355C0.501578 44.6237 3.338 52.3068 7.99141 57.9871ZM2.29758 35.0017C2.4295 34.859 2.64838 34.6891 2.93922 34.6891H47.8812C48.175 34.6891 48.3939 34.859 48.5258 35.0017C48.8077 35.3051 48.9576 35.7663 48.9276 36.2336C48.8706 37.1591 48.7807 38.0998 48.6608 39.0344L48.4869 40.3725L49.7911 40.0934C52.3007 39.5563 54.2437 40.1996 55.1222 41.8563C56.7473 44.9271 54.3546 50.3193 49.7851 53.8786C47.5874 55.59 45.2307 56.6156 43.1468 56.7704C42.7331 56.8007 42.3463 56.7977 41.9355 56.7522L41.4378 56.6945L41.111 57.0799C36.7814 62.211 31.2015 65.036 25.4057 65.036C13.1845 65.036 2.85227 52.3887 1.88381 36.2427C1.86282 35.7694 2.01574 35.3051 2.29758 35.0017Z" fill="#C29C5E"/>
<path d="M18.1947 61.1763C18.3237 61.1763 18.4436 61.1278 18.5335 61.0367C18.6235 60.9487 18.6715 60.8274 18.6715 60.7029C18.6715 60.5755 18.6205 60.4511 18.5335 60.3601C18.3566 60.178 18.0568 60.178 17.8649 60.3601C17.778 60.4481 17.727 60.5725 17.727 60.7029C17.727 60.8274 17.775 60.9487 17.8649 61.0367C17.9519 61.1247 18.0748 61.1763 18.1947 61.1763Z" fill="#C29C5E"/>
<path d="M21.8257 59.3527C21.9546 59.3527 22.0746 59.3041 22.1645 59.2131C22.2545 59.1221 22.3024 59.0037 22.3024 58.8793C22.3024 58.7519 22.2515 58.6275 22.1645 58.5364C21.9876 58.3544 21.6878 58.3544 21.4959 58.5364C21.4089 58.6244 21.358 58.7489 21.358 58.8793C21.358 59.0037 21.4059 59.1221 21.4959 59.2131C21.5858 59.3011 21.7088 59.3527 21.8257 59.3527Z" fill="#C29C5E"/>
<path d="M34.5926 55.1561C34.7155 55.1561 34.8325 55.1045 34.9134 55.0196C35.0094 54.9376 35.0694 54.8072 35.0694 54.6797C35.0694 54.5614 35.0244 54.4491 34.9284 54.3338C34.8355 54.2458 34.7066 54.2003 34.5716 54.2063C34.4457 54.2124 34.3318 54.261 34.2628 54.3399C34.1668 54.44 34.1159 54.5583 34.1159 54.6827C34.1159 54.8254 34.1878 54.9467 34.2538 55.0165C34.3438 55.1045 34.4667 55.1561 34.5926 55.1561Z" fill="#C29C5E"/>
<path d="M29.9332 57.3257C30.0561 57.3257 30.1761 57.2771 30.263 57.1861C30.356 57.092 30.4099 56.9646 30.4099 56.8432C30.4099 56.7127 30.356 56.5914 30.263 56.5094C30.0801 56.3243 29.7803 56.3243 29.5974 56.5094C29.5074 56.6005 29.4565 56.7188 29.4565 56.8432C29.4565 56.9616 29.5104 57.089 29.5884 57.1709C29.6753 57.268 29.8013 57.3257 29.9332 57.3257Z" fill="#C29C5E"/>
<path d="M33.0724 60.2872C33.1864 60.2872 33.3063 60.2387 33.4113 60.1477C33.4982 60.0597 33.5492 59.9352 33.5492 59.8048C33.5492 59.6713 33.4952 59.5438 33.4143 59.474C33.3303 59.383 33.2164 59.3314 33.0874 59.3314C32.9615 59.3253 32.8356 59.3769 32.7576 59.4558C32.6587 59.5408 32.6047 59.6682 32.6047 59.8048C32.6047 59.9383 32.6587 60.0657 32.7426 60.1385C32.8386 60.2326 32.9615 60.2872 33.0724 60.2872Z" fill="#C29C5E"/>
<path d="M34.6046 56.3699C34.4757 56.3638 34.3527 56.4154 34.2748 56.4943C34.1788 56.5792 34.1219 56.7067 34.1219 56.8432C34.1219 56.9768 34.1758 57.1042 34.2598 57.177C34.3527 57.2711 34.4757 57.3257 34.5896 57.3257C34.7035 57.3257 34.8235 57.2772 34.9284 57.1861C35.0154 57.0981 35.0663 56.9707 35.0663 56.8432C35.0663 56.7097 35.0124 56.5823 34.9314 56.5125C34.8475 56.4245 34.7305 56.3729 34.6046 56.3699Z" fill="#C29C5E"/>
<path d="M25.8135 61.5343C25.9424 61.5343 26.0653 61.4828 26.1493 61.3948C26.2392 61.3068 26.2902 61.1824 26.2902 61.0519C26.2902 60.9305 26.2392 60.8061 26.1523 60.7181C25.9814 60.5451 25.6546 60.5451 25.4867 60.7181C25.3967 60.8091 25.3487 60.9275 25.3487 61.0519C25.3487 61.1854 25.3967 61.3037 25.4867 61.3948C25.5706 61.4797 25.6935 61.5343 25.8135 61.5343Z" fill="#C29C5E"/>
<path d="M23.0041 63.5341C23.127 63.5341 23.2439 63.4855 23.3339 63.3945C23.4208 63.3035 23.4718 63.179 23.4718 63.0516C23.4718 62.9333 23.4268 62.8058 23.3399 62.7057C23.151 62.5266 22.8421 62.5266 22.6652 62.7087C22.5813 62.7906 22.5363 62.912 22.5363 63.0516C22.5363 63.1821 22.5783 63.2943 22.6712 63.3975C22.7732 63.4886 22.8841 63.5341 23.0041 63.5341Z" fill="#C29C5E"/>
<path d="M25.9004 63.0698C25.8165 63.1517 25.7715 63.2731 25.7715 63.4127C25.7715 63.5401 25.8135 63.6554 25.9064 63.7586C26.0084 63.8496 26.1193 63.8951 26.2393 63.8951C26.3622 63.8951 26.4791 63.8466 26.5691 63.7555C26.656 63.6645 26.707 63.5401 26.707 63.4127C26.707 63.2943 26.662 63.1669 26.5751 63.0668C26.3862 62.8877 26.0773 62.8877 25.9004 63.0698Z" fill="#C29C5E"/>
<path d="M29.5854 63.173C29.7083 63.173 29.8252 63.1244 29.9152 63.0334C30.0022 62.9423 30.0531 62.8179 30.0531 62.6905C30.0531 62.5721 30.0081 62.4447 29.9212 62.3446C29.7323 62.1655 29.4235 62.1686 29.2466 62.3476C29.1626 62.4295 29.1176 62.5509 29.1176 62.6905C29.1176 62.821 29.1596 62.9332 29.2526 63.0394C29.3515 63.1274 29.4654 63.173 29.5854 63.173Z" fill="#C29C5E"/>
<path d="M30.1761 59.4497C30.1761 59.5772 30.218 59.6925 30.311 59.7957C30.4129 59.8867 30.5239 59.9322 30.6438 59.9322C30.7667 59.9322 30.8837 59.8837 30.9736 59.7896C31.0606 59.7016 31.1115 59.5742 31.1115 59.4467C31.1115 59.3284 31.0666 59.2009 30.9796 59.1008C30.7907 58.9218 30.4819 58.9248 30.305 59.1038C30.221 59.1888 30.1761 59.3102 30.1761 59.4497Z" fill="#C29C5E"/>
<path d="M39.4889 50.3374C39.6118 50.3374 39.7287 50.2889 39.8127 50.2039C39.9056 50.122 39.9566 50.0006 39.9566 49.8641C39.9566 49.7336 39.9056 49.6092 39.8187 49.5212C39.7317 49.4332 39.6028 49.3816 39.4739 49.3846C39.348 49.3877 39.228 49.4362 39.1531 49.5212C39.0661 49.6092 39.0151 49.7366 39.0151 49.8641C39.0151 49.9855 39.0661 50.1099 39.1531 50.1948C39.24 50.2859 39.3629 50.3374 39.4889 50.3374Z" fill="#C29C5E"/>
<path d="M39.1351 54.4461C39.258 54.4461 39.3779 54.3975 39.4679 54.3004C39.5548 54.1972 39.6028 54.085 39.6028 53.9636C39.6028 53.8301 39.5488 53.7026 39.4679 53.6328C39.3839 53.5418 39.27 53.4933 39.1411 53.4902C39.0091 53.4902 38.8922 53.5357 38.8083 53.6207C38.7153 53.7148 38.6583 53.8422 38.6583 53.9636C38.6583 54.088 38.7063 54.2063 38.7903 54.2913C38.8772 54.3914 39.0002 54.4461 39.1351 54.4461Z" fill="#C29C5E"/>
<path d="M37.504 58.6396C37.6269 58.6396 37.7438 58.588 37.8188 58.5091C37.9207 58.4333 37.9807 58.3058 37.9807 58.1662C37.9807 58.0388 37.9297 57.9144 37.8398 57.8203C37.7498 57.7323 37.6149 57.6868 37.486 57.6898C37.3601 57.6929 37.2461 57.7445 37.1742 57.8203C37.0872 57.9083 37.0362 58.0358 37.0362 58.1632C37.0362 58.2876 37.0842 58.4151 37.1652 58.497C37.2551 58.588 37.378 58.6396 37.504 58.6396Z" fill="#C29C5E"/>
<path d="M42.1963 42.9245C42.3193 42.9245 42.4362 42.8729 42.5112 42.794C42.6131 42.7182 42.6731 42.5907 42.6731 42.4511C42.6731 42.3237 42.6221 42.1993 42.5322 42.1052C42.4422 42.0172 42.3103 41.9717 42.1784 41.9748C42.0524 41.9778 41.9385 42.0294 41.8665 42.1052C41.7796 42.1932 41.7286 42.3207 41.7286 42.4481C41.7286 42.5725 41.7766 42.7 41.8575 42.7819C41.9475 42.876 42.0704 42.9245 42.1963 42.9245Z" fill="#C29C5E"/>
<path d="M44.8769 45.3035C44.9998 45.3035 45.1168 45.2549 45.2067 45.1639C45.2937 45.0759 45.3446 44.9515 45.3446 44.821C45.3446 44.6936 45.2966 44.5752 45.2097 44.4903C45.1257 44.3992 45.0058 44.3477 44.8739 44.3477C44.742 44.3477 44.619 44.3992 44.5411 44.4872C44.4511 44.5752 44.4032 44.6936 44.4032 44.821C44.4032 44.9545 44.4571 45.082 44.5291 45.1427C44.604 45.2458 44.73 45.3035 44.8769 45.3035Z" fill="#C29C5E"/>
<path d="M43.8844 49.2148C44.0014 49.2148 44.1183 49.1601 44.2142 49.0661C44.3042 48.975 44.3522 48.8567 44.3522 48.7323C44.3522 48.5988 44.2982 48.4713 44.2172 48.4016C44.1363 48.3136 44.0194 48.262 43.8904 48.262C43.7615 48.2529 43.6356 48.3075 43.5546 48.3894C43.4617 48.4835 43.4047 48.6109 43.4047 48.7323C43.4047 48.8658 43.4587 48.9933 43.5426 49.0661C43.6386 49.1601 43.7645 49.2148 43.8844 49.2148Z" fill="#C29C5E"/>
<path d="M28.2241 9.58564C27.8254 10.0863 27.4176 10.5384 26.9109 10.9906C26.4012 11.4639 25.8495 11.9434 25.2708 12.4471C24.1344 13.4666 22.8691 14.6258 21.9186 16.2279C20.9562 17.8149 20.5334 19.851 20.7973 21.6352C21.0281 23.4407 21.7777 25.0398 22.7552 26.3597C23.7566 27.6706 24.962 28.766 26.3562 29.4912C24.6951 26.8665 23.6127 24.0233 23.7626 21.4865C23.8436 20.2242 24.2274 19.1531 24.929 18.1942C25.6246 17.2232 26.632 16.3098 27.7564 15.3237C29.9272 13.4666 32.9855 10.4747 32.5987 6.29939C32.4788 5.28591 32.059 4.27849 31.4204 3.53506C30.7877 2.78253 30.0291 2.27579 29.3035 1.90863C27.8254 1.18038 26.4461 0.825354 25.1119 0C25.8495 1.43223 27.2557 2.41537 28.2421 3.43493C29.2916 4.44841 29.7593 5.45583 29.6424 6.46628C29.5674 7.47674 29.0037 8.59339 28.2241 9.58564Z" fill="#C29C5E"/>
<path d="M18.0958 27.3702C16.8515 25.677 15.946 23.826 15.7211 21.9447C15.4932 20.0664 16.0689 18.2731 17.2832 16.9015C18.5395 15.4814 20.2486 14.1008 21.4539 12.2437C22.0536 11.3243 22.5843 10.2259 22.5573 9.00301C22.5033 7.76195 21.7298 6.77274 20.8573 6.22351C21.4629 7.09741 21.8257 8.06539 21.6368 8.94839C21.4689 9.8314 20.9022 10.6112 20.2846 11.3456C18.9923 12.8233 17.3882 13.9976 15.859 15.6453C15.1184 16.5313 14.5248 17.5934 14.2369 18.7495C13.9731 19.9056 13.9641 21.1193 14.2699 22.2269C14.8486 24.4541 16.3178 26.2596 18.0958 27.3702Z" fill="#C29C5E"/>
<path d="M30.0531 18.267C29.4894 19.1318 29.1147 20.1483 29.0247 21.1891C28.9438 22.2269 29.0757 23.2586 29.4295 24.1871C30.1071 26.0472 31.4144 27.5492 32.9915 28.4777C31.9541 26.9696 31.1685 25.3857 30.8477 23.7744C30.5239 22.1601 30.7907 20.5944 31.6303 19.323C32.4728 18.0485 33.903 16.9258 35.1323 15.5118C35.75 14.8078 36.3226 13.9885 36.6525 13.0509C36.9733 12.1102 36.9763 11.0755 36.6405 10.2137C36.5265 12.1133 35.4142 13.3695 34.1039 14.4528C32.8026 15.5694 31.2315 16.5404 30.0531 18.267Z" fill="#C29C5E"/>
</svg>
