<svg width="16" height="29" viewBox="0 0 16 29" fill="none" xmlns="http://www.w3.org/2000/svg">
<path d="M11.4426 0C12.2214 0 13.0003 0.0414286 13.7709 0.0745714C14.2763 0.0911429 14.7817 0.165714 15.254 0.215429L15.2209 4.88857C15.08 4.88857 14.964 4.88857 14.848 4.88857C14.3343 4.88857 13.8206 4.88029 13.3069 4.88029C12.9257 4.88029 12.5363 4.88029 12.1551 4.89686C10.9206 4.93829 10.0091 5.40229 9.94286 6.95171C9.90143 8.062 9.87657 10.5229 9.87657 10.6554C9.94286 10.6554 11.1609 10.6637 12.3954 10.6637C13.0086 10.6637 13.6134 10.6637 14.0277 10.6554C14.3509 10.6554 14.6657 10.6554 15.0303 10.6554C14.7817 12.4451 14.5497 14.1686 14.3011 15.9003H9.87657L9.77714 29H4.34171L4.44114 15.8754H0L0.0414287 10.6554H4.50743V10.266C4.51571 9.21372 4.49914 8.16143 4.54057 7.10914C4.55714 6.44629 4.59029 5.76686 4.70629 5.11229C5.00457 3.51314 5.75029 2.17086 7.08429 1.218C8.25257 0.381143 9.58657 0.0331429 11.0034 0C11.1526 0 11.2934 0 11.4426 0Z" fill="#E6E6E6"/>
</svg>
