<svg width="29" height="30" viewBox="0 0 29 30" fill="none" xmlns="http://www.w3.org/2000/svg">
<path d="M22.283 5.03613C22.2924 5.03613 22.3017 5.03613 22.3017 5.03613C23.2559 5.03613 24.0324 5.81312 24.0231 6.78669C24.0137 7.74154 23.2279 8.51852 22.2643 8.51852C21.3007 8.50916 20.5336 7.72281 20.5429 6.76797C20.5523 5.81312 21.3288 5.03613 22.283 5.03613Z" fill="#E6E6E6"/>
<path d="M28.8223 7.2737C29.0375 9.55784 29.1778 20.342 28.5043 22.8696C27.6061 26.1741 25.4451 28.1306 22.1053 28.6735C20.8517 28.8795 17.4838 29.0012 14.1066 29.0012C10.6545 29.0012 7.21177 28.8701 6.05173 28.5706C2.76804 27.7187 0.80345 25.575 0.279557 22.2423C-0.113362 19.7991 -0.150789 8.42513 0.550853 5.96312C1.46766 2.75221 3.61936 0.861236 6.86563 0.327644C8.33439 0.0842514 11.2158 0 14.1253 0C16.8289 0 19.5607 0.0748901 21.2072 0.159141C23.1998 0.262115 25.0148 0.908042 26.5022 2.32159C27.9149 3.66961 28.6352 5.35464 28.8223 7.2737ZM26.0345 21.7556C26.4461 19.2093 26.4555 9.89485 26.2122 7.50773C25.9503 4.96147 24.3973 3.27644 21.8714 2.88327C20.6272 2.69604 17.6148 2.61179 14.6211 2.61179C11.7303 2.61179 8.85829 2.68668 7.59533 2.8271C5.06942 3.1173 3.36678 4.68063 2.9645 7.19881C2.55287 9.86677 2.55287 19.8365 2.86159 21.8398C3.17967 23.9274 4.35843 25.3596 6.43529 25.94C7.55792 26.2583 10.9258 26.3707 14.2282 26.3707C17.2686 26.3707 20.253 26.2771 21.3756 26.1554C23.9389 25.8745 25.6322 24.3018 26.0345 21.7556Z" fill="#E6E6E6"/>
<path d="M14.565 7.05837C18.6626 7.05837 21.965 10.391 21.9369 14.5006C21.9088 18.6008 18.5503 21.9334 14.4434 21.9334C10.3364 21.9334 7.0434 18.6008 7.07147 14.4912C7.09953 10.3816 10.4581 7.04901 14.565 7.05837ZM14.4527 19.3029C17.0909 19.3029 19.252 17.1779 19.2987 14.538C19.3455 11.8701 17.2312 9.70761 14.5744 9.67952C14.5556 9.67952 14.5463 9.67952 14.5276 9.67952C11.8894 9.67952 9.72836 11.8045 9.68158 14.4444C9.63481 17.103 11.7491 19.2748 14.406 19.3029C14.4247 19.3029 14.4434 19.3029 14.4527 19.3029Z" fill="#E6E6E6"/>
</svg>
