<svg width="29" height="30" viewBox="0 0 29 30" fill="none" xmlns="http://www.w3.org/2000/svg">
<path d="M3.52893 0C5.46767 0 7.01662 1.56945 6.9961 3.49794C6.98585 5.42643 5.41638 6.9959 3.46738 6.9959C1.53889 6.9959 -0.0203157 5.42643 0.000200162 3.49794C0.020716 1.56945 1.60044 0 3.52893 0Z" fill="#E6E6E6"/>
<path d="M6.473 9.63232L6.32939 29.0506H0.287476L0.441344 9.63232H6.473Z" fill="#E6E6E6"/>
<path d="M21.8291 9.1604C27.9428 9.1604 29.0301 13.1713 28.9993 18.4028L28.9173 29.0505H22.8959L22.9677 19.6235C22.9882 17.3667 22.9574 14.4637 19.8698 14.4637C16.7309 14.4637 16.2385 16.9154 16.218 19.4491L16.1462 29.0505H10.1042L10.2581 9.63227H16.0436L16.0231 12.2891H16.1154C16.9155 10.7709 18.8953 9.1604 21.8291 9.1604Z" fill="#E6E6E6"/>
</svg>
