<svg width="29" height="24" viewBox="0 0 29 24" fill="none" xmlns="http://www.w3.org/2000/svg">
<path d="M29 2.78122C28.7858 3.1011 28.5717 3.40321 28.3308 3.68755C27.7062 4.46061 26.9745 5.14481 26.1625 5.73126L26.0643 5.91786C26.0911 6.78866 26.0554 7.66834 25.9305 8.53913C25.6985 10.3785 25.1631 12.1289 24.3689 13.7995C23.5302 15.5233 22.4683 17.0872 21.1209 18.4555C18.8366 20.7925 16.1062 22.2942 12.9295 22.9872C11.8409 23.2183 10.7434 23.3427 9.61908 23.3782C9.44061 23.3871 9.26215 23.3871 9.08369 23.3871C5.87139 23.3871 2.89107 22.5341 0.142766 20.8369L0 20.748C0.472923 20.8014 0.936921 20.8191 1.392 20.8191C2.96246 20.8191 4.47046 20.5259 5.94277 19.9395C6.96 19.5218 7.89692 18.9887 8.77139 18.2956C5.69292 18.1979 3.78338 15.9853 3.28369 14.1904C3.64954 14.2615 4.01538 14.2971 4.39015 14.2971C4.872 14.2971 5.35385 14.2349 5.82677 14.1282L5.916 14.0838C4.23846 13.6928 2.96246 12.8131 2.088 11.3737C1.49907 10.4229 1.22246 9.37439 1.23138 8.23702C2.07015 8.6813 2.93569 8.92122 3.87261 8.94787C2.62338 8.05042 1.79354 6.86863 1.45446 5.36695C1.12431 3.86527 1.35631 2.43467 2.13261 1.08405C5.30923 4.85158 9.3603 6.92194 14.3215 7.26848C14.2858 7.02857 14.2591 6.8242 14.2234 6.61983C14.0717 5.22478 14.3662 3.93635 15.1335 2.76344C16.0883 1.27954 17.4357 0.364313 19.1757 0.0888567C19.5415 0.0266569 19.9074 0 20.2554 0C21.808 0 23.1821 0.59534 24.36 1.74159C24.4314 1.80379 24.4938 1.83933 24.5742 1.83933C24.6009 1.83933 24.6366 1.83933 24.6634 1.83045C25.8858 1.57276 27.0458 1.13737 28.1255 0.515369L28.2058 0.470941C27.7775 1.83933 26.912 2.90562 25.6806 3.68755C26.8406 3.54538 27.9382 3.23439 29 2.78122Z" fill="#E6E6E6"/>
</svg>
