<svg width="29" height="21" viewBox="0 0 29 21" fill="none" xmlns="http://www.w3.org/2000/svg">
<path d="M28.2641 2.64393C29.3053 5.37841 29.2601 15.3475 28.0105 17.9914C27.6665 18.7158 27.1232 19.2047 26.435 19.576C25.4571 20.083 19.789 20.3184 14.2295 20.3184C9.11366 20.3184 4.09743 20.1192 2.92033 19.7299C1.83379 19.3677 1.09131 18.6524 0.701968 17.5658C-0.239706 14.9219 -0.447963 3.83007 1.43539 1.64792C2.0692 0.905449 2.90223 0.461777 3.87107 0.362177C6.09849 0.117704 10.3994 0 14.646 0C19.9248 0 25.1131 0.181083 26.1 0.543265C27.1413 0.923557 27.8747 1.60266 28.2641 2.64393ZM10.9065 14.5416C13.9126 12.9752 16.9096 11.4359 19.9429 9.86947C16.9368 8.29397 13.9579 6.73659 10.9789 5.17015C10.9517 8.29397 10.9246 11.3997 10.9065 14.5416Z" fill="#E6E6E6"/>
</svg>
